<mxfile host="app.diagrams.net" modified="2022-05-31T13:50:46.659Z" agent="5.0 (Windows)" etag="vTqPtIsblQ0hoRZUItEX" version="18.1.3" type="github" pages="3">
  <diagram id="wkbdaEnrbXeY8MJsiPsy" name="Domaine">
    <mxGraphModel dx="1195" dy="425" grid="1" gridSize="10" guides="1" tooltips="1" connect="1" arrows="1" fold="1" page="1" pageScale="1" pageWidth="827" pageHeight="1169" math="0" shadow="0">
      <root>
        <mxCell id="0" />
        <mxCell id="1" parent="0" />
        <mxCell id="j51ZYzBfSTIN8o8M2cnj-19" value="client" style="shape=umlActor;verticalLabelPosition=bottom;verticalAlign=top;html=1;strokeWidth=5;fillColor=#d80073;fontColor=#ffffff;strokeColor=#A50040;" vertex="1" parent="1">
          <mxGeometry x="140" y="215" width="30" height="60" as="geometry" />
        </mxCell>
        <mxCell id="j51ZYzBfSTIN8o8M2cnj-20" style="edgeStyle=none;rounded=0;orthogonalLoop=1;jettySize=auto;html=1;exitX=0;exitY=0.5;exitDx=0;exitDy=0;endArrow=none;endFill=0;strokeColor=#000000;" edge="1" parent="1" source="j51ZYzBfSTIN8o8M2cnj-21">
          <mxGeometry relative="1" as="geometry">
            <mxPoint x="180" y="260" as="targetPoint" />
          </mxGeometry>
        </mxCell>
        <mxCell id="j51ZYzBfSTIN8o8M2cnj-21" value="Pay order" style="ellipse;whiteSpace=wrap;html=1;fillColor=#dae8fc;strokeColor=#6c8ebf;strokeWidth=5;" vertex="1" parent="1">
          <mxGeometry x="260" y="370" width="140" height="70" as="geometry" />
        </mxCell>
        <mxCell id="j51ZYzBfSTIN8o8M2cnj-22" value="Barmaid" style="shape=umlActor;verticalLabelPosition=bottom;verticalAlign=top;html=1;fillColor=#d80073;strokeColor=#A50040;strokeWidth=5;fontColor=#ffffff;" vertex="1" parent="1">
          <mxGeometry x="699" y="215" width="30" height="60" as="geometry" />
        </mxCell>
        <mxCell id="j51ZYzBfSTIN8o8M2cnj-25" style="edgeStyle=none;rounded=0;orthogonalLoop=1;jettySize=auto;html=1;exitX=1;exitY=0.5;exitDx=0;exitDy=0;endArrow=none;endFill=0;strokeColor=#000000;" edge="1" parent="1" source="j51ZYzBfSTIN8o8M2cnj-26">
          <mxGeometry relative="1" as="geometry">
            <mxPoint x="690" y="220" as="targetPoint" />
          </mxGeometry>
        </mxCell>
        <mxCell id="j51ZYzBfSTIN8o8M2cnj-26" value="Get order" style="ellipse;whiteSpace=wrap;html=1;fillColor=#dae8fc;strokeColor=#6c8ebf;strokeWidth=5;" vertex="1" parent="1">
          <mxGeometry x="480" y="140" width="140" height="70" as="geometry" />
        </mxCell>
        <mxCell id="j51ZYzBfSTIN8o8M2cnj-27" style="edgeStyle=none;rounded=0;orthogonalLoop=1;jettySize=auto;html=1;exitX=1;exitY=0.5;exitDx=0;exitDy=0;endArrow=none;endFill=0;strokeColor=#000000;" edge="1" parent="1" source="j51ZYzBfSTIN8o8M2cnj-28">
          <mxGeometry relative="1" as="geometry">
            <mxPoint x="690" y="240" as="targetPoint" />
          </mxGeometry>
        </mxCell>
        <mxCell id="j51ZYzBfSTIN8o8M2cnj-28" value="Prepare Juice" style="ellipse;whiteSpace=wrap;html=1;fillColor=#dae8fc;strokeColor=#6c8ebf;strokeWidth=5;" vertex="1" parent="1">
          <mxGeometry x="480" y="235" width="140" height="70" as="geometry" />
        </mxCell>
        <mxCell id="j51ZYzBfSTIN8o8M2cnj-29" value="Cash in" style="ellipse;whiteSpace=wrap;html=1;fillColor=#dae8fc;strokeColor=#6c8ebf;strokeWidth=5;" vertex="1" parent="1">
          <mxGeometry x="480" y="330" width="141" height="70" as="geometry" />
        </mxCell>
        <mxCell id="j51ZYzBfSTIN8o8M2cnj-30" value="Choose juice" style="ellipse;whiteSpace=wrap;html=1;fillColor=#dae8fc;strokeColor=#6c8ebf;strokeWidth=5;" vertex="1" parent="1">
          <mxGeometry x="260" y="70" width="140" height="70" as="geometry" />
        </mxCell>
        <mxCell id="j51ZYzBfSTIN8o8M2cnj-31" value="Choose juice size" style="ellipse;whiteSpace=wrap;html=1;fillColor=#dae8fc;strokeColor=#6c8ebf;strokeWidth=5;" vertex="1" parent="1">
          <mxGeometry x="260" y="180" width="140" height="70" as="geometry" />
        </mxCell>
        <mxCell id="j51ZYzBfSTIN8o8M2cnj-32" style="edgeStyle=none;rounded=0;orthogonalLoop=1;jettySize=auto;html=1;exitX=1;exitY=0.5;exitDx=0;exitDy=0;endArrow=none;endFill=0;strokeColor=#000000;" edge="1" parent="1" source="j51ZYzBfSTIN8o8M2cnj-29">
          <mxGeometry relative="1" as="geometry">
            <mxPoint x="691" y="250" as="targetPoint" />
            <mxPoint x="630" y="250" as="sourcePoint" />
          </mxGeometry>
        </mxCell>
        <mxCell id="j51ZYzBfSTIN8o8M2cnj-33" style="edgeStyle=none;rounded=0;orthogonalLoop=1;jettySize=auto;html=1;endArrow=none;endFill=0;strokeColor=#000000;entryX=0;entryY=0.5;entryDx=0;entryDy=0;" edge="1" parent="1" target="j51ZYzBfSTIN8o8M2cnj-30">
          <mxGeometry relative="1" as="geometry">
            <mxPoint x="699" y="270" as="targetPoint" />
            <mxPoint x="180" y="230" as="sourcePoint" />
          </mxGeometry>
        </mxCell>
        <mxCell id="j51ZYzBfSTIN8o8M2cnj-34" style="edgeStyle=none;rounded=0;orthogonalLoop=1;jettySize=auto;html=1;endArrow=none;endFill=0;strokeColor=#000000;entryX=0;entryY=0.5;entryDx=0;entryDy=0;" edge="1" parent="1" target="j51ZYzBfSTIN8o8M2cnj-31">
          <mxGeometry relative="1" as="geometry">
            <mxPoint x="279" y="260" as="targetPoint" />
            <mxPoint x="180" y="240" as="sourcePoint" />
          </mxGeometry>
        </mxCell>
        <mxCell id="j51ZYzBfSTIN8o8M2cnj-35" value="Cancel order" style="ellipse;whiteSpace=wrap;html=1;fillColor=#dae8fc;strokeColor=#6c8ebf;strokeWidth=5;" vertex="1" parent="1">
          <mxGeometry x="260" y="280" width="140" height="70" as="geometry" />
        </mxCell>
        <mxCell id="j51ZYzBfSTIN8o8M2cnj-36" style="edgeStyle=none;rounded=0;orthogonalLoop=1;jettySize=auto;html=1;endArrow=none;endFill=0;strokeColor=#000000;entryX=0;entryY=0.5;entryDx=0;entryDy=0;" edge="1" parent="1" target="j51ZYzBfSTIN8o8M2cnj-35">
          <mxGeometry relative="1" as="geometry">
            <mxPoint x="270" y="230" as="targetPoint" />
            <mxPoint x="180" y="250" as="sourcePoint" />
          </mxGeometry>
        </mxCell>
      </root>
    </mxGraphModel>
  </diagram>
  <diagram id="YGH1Q3cD3NL-x3hIsZLw" name="Class">
    <mxGraphModel dx="1406" dy="500" grid="1" gridSize="10" guides="1" tooltips="1" connect="1" arrows="1" fold="1" page="1" pageScale="1" pageWidth="827" pageHeight="1169" background="#ffffff" math="0" shadow="0">
      <root>
        <mxCell id="0" />
        <mxCell id="1" parent="0" />
        <mxCell id="JlCu7Rt74AODUVbhi9vR-1" value="" style="edgeStyle=none;rounded=0;orthogonalLoop=1;jettySize=auto;html=1;endArrow=none;endFill=0;strokeColor=#000000;entryX=0.479;entryY=1.136;entryDx=0;entryDy=0;entryPerimeter=0;exitX=0.5;exitY=0;exitDx=0;exitDy=0;" edge="1" parent="1" source="R4sMu0DY9upS_9sUgCj5-6" target="JlCu7Rt74AODUVbhi9vR-17">
          <mxGeometry relative="1" as="geometry">
            <mxPoint x="512.5" y="122.00000000000011" as="sourcePoint" />
          </mxGeometry>
        </mxCell>
        <mxCell id="JlCu7Rt74AODUVbhi9vR-7" value="Barmaid" style="swimlane;fontStyle=1;align=center;verticalAlign=top;childLayout=stackLayout;horizontal=1;startSize=26;horizontalStack=0;resizeParent=1;resizeParentMax=0;resizeLast=0;collapsible=1;marginBottom=0;rounded=1;strokeWidth=2;fillColor=#ffe6cc;strokeColor=#d79b00;" vertex="1" parent="1">
          <mxGeometry x="355" y="232" width="315" height="216" as="geometry" />
        </mxCell>
        <mxCell id="JlCu7Rt74AODUVbhi9vR-8" value="+ JuiceAvailable: Array&lt;TypeJuice&gt;" style="text;strokeColor=none;fillColor=none;align=left;verticalAlign=top;spacingLeft=4;spacingRight=4;overflow=hidden;rotatable=0;points=[[0,0.5],[1,0.5]];portConstraint=eastwest;rounded=1;" vertex="1" parent="JlCu7Rt74AODUVbhi9vR-7">
          <mxGeometry y="26" width="315" height="26" as="geometry" />
        </mxCell>
        <mxCell id="JlCu7Rt74AODUVbhi9vR-10" value="+ SizeAvailable: Array&lt;TypeSizet&gt;" style="text;strokeColor=none;fillColor=none;align=left;verticalAlign=top;spacingLeft=4;spacingRight=4;overflow=hidden;rotatable=0;points=[[0,0.5],[1,0.5]];portConstraint=eastwest;rounded=1;" vertex="1" parent="JlCu7Rt74AODUVbhi9vR-7">
          <mxGeometry y="52" width="315" height="26" as="geometry" />
        </mxCell>
        <mxCell id="JlCu7Rt74AODUVbhi9vR-11" value="" style="line;strokeWidth=1;fillColor=none;align=left;verticalAlign=middle;spacingTop=-1;spacingLeft=3;spacingRight=3;rotatable=0;labelPosition=right;points=[];portConstraint=eastwest;rounded=1;" vertex="1" parent="JlCu7Rt74AODUVbhi9vR-7">
          <mxGeometry y="78" width="315" height="8" as="geometry" />
        </mxCell>
        <mxCell id="JlCu7Rt74AODUVbhi9vR-12" value="+ SeeJuiceAvailable(): Array&lt;TypeJuiceÂ  &gt;" style="text;strokeColor=none;fillColor=none;align=left;verticalAlign=top;spacingLeft=4;spacingRight=4;overflow=hidden;rotatable=0;points=[[0,0.5],[1,0.5]];portConstraint=eastwest;rounded=1;" vertex="1" parent="JlCu7Rt74AODUVbhi9vR-7">
          <mxGeometry y="86" width="315" height="26" as="geometry" />
        </mxCell>
        <mxCell id="-aGEuk5vXCgPocm1W5hh-2" value="+ ChooseJuice(TypeJuice juice, TypeSize size): boolean" style="text;strokeColor=none;fillColor=none;align=left;verticalAlign=top;spacingLeft=4;spacingRight=4;overflow=hidden;rotatable=0;points=[[0,0.5],[1,0.5]];portConstraint=eastwest;rounded=1;" vertex="1" parent="JlCu7Rt74AODUVbhi9vR-7">
          <mxGeometry y="112" width="315" height="26" as="geometry" />
        </mxCell>
        <mxCell id="JlCu7Rt74AODUVbhi9vR-15" value="+ ValidateOrder(): boolean" style="text;strokeColor=none;fillColor=none;align=left;verticalAlign=top;spacingLeft=4;spacingRight=4;overflow=hidden;rotatable=0;points=[[0,0.5],[1,0.5]];portConstraint=eastwest;rounded=1;" vertex="1" parent="JlCu7Rt74AODUVbhi9vR-7">
          <mxGeometry y="138" width="315" height="26" as="geometry" />
        </mxCell>
        <mxCell id="JlCu7Rt74AODUVbhi9vR-16" value="+ CancelOrder(): void" style="text;strokeColor=none;fillColor=none;align=left;verticalAlign=top;spacingLeft=4;spacingRight=4;overflow=hidden;rotatable=0;points=[[0,0.5],[1,0.5]];portConstraint=eastwest;rounded=1;" vertex="1" parent="JlCu7Rt74AODUVbhi9vR-7">
          <mxGeometry y="164" width="315" height="26" as="geometry" />
        </mxCell>
        <mxCell id="JlCu7Rt74AODUVbhi9vR-17" value="+ Pay(Number sum): (boolean, Number)" style="text;strokeColor=none;fillColor=none;align=left;verticalAlign=top;spacingLeft=4;spacingRight=4;overflow=hidden;rotatable=0;points=[[0,0.5],[1,0.5]];portConstraint=eastwest;rounded=1;" vertex="1" parent="JlCu7Rt74AODUVbhi9vR-7">
          <mxGeometry y="190" width="315" height="26" as="geometry" />
        </mxCell>
        <mxCell id="JlCu7Rt74AODUVbhi9vR-25" style="edgeStyle=none;rounded=0;orthogonalLoop=1;jettySize=auto;html=1;exitX=1;exitY=0.5;exitDx=0;exitDy=0;endArrow=none;endFill=0;strokeColor=#000000;entryX=0;entryY=0.5;entryDx=0;entryDy=0;" edge="1" parent="1" source="R4sMu0DY9upS_9sUgCj5-3" target="R4sMu0DY9upS_9sUgCj5-6">
          <mxGeometry relative="1" as="geometry">
            <mxPoint x="350" y="270" as="targetPoint" />
            <mxPoint x="249.0400000000002" y="379.65999999999985" as="sourcePoint" />
          </mxGeometry>
        </mxCell>
        <mxCell id="R4sMu0DY9upS_9sUgCj5-1" value="TypeSize" style="swimlane;fontStyle=0;align=center;verticalAlign=top;childLayout=stackLayout;horizontal=1;startSize=26;horizontalStack=0;resizeParent=1;resizeLast=0;collapsible=1;marginBottom=0;rounded=1;shadow=0;strokeWidth=2;fillColor=#ffe6cc;strokeColor=#d79b00;" vertex="1" parent="1">
          <mxGeometry x="70" y="535" width="160" height="112" as="geometry">
            <mxRectangle x="130" y="380" width="160" height="26" as="alternateBounds" />
          </mxGeometry>
        </mxCell>
        <mxCell id="R4sMu0DY9upS_9sUgCj5-2" value="+ Small" style="text;align=left;verticalAlign=top;spacingLeft=4;spacingRight=4;overflow=hidden;rotatable=0;points=[[0,0.5],[1,0.5]];portConstraint=eastwest;" vertex="1" parent="R4sMu0DY9upS_9sUgCj5-1">
          <mxGeometry y="26" width="160" height="26" as="geometry" />
        </mxCell>
        <mxCell id="R4sMu0DY9upS_9sUgCj5-3" value="+ Medium" style="text;align=left;verticalAlign=top;spacingLeft=4;spacingRight=4;overflow=hidden;rotatable=0;points=[[0,0.5],[1,0.5]];portConstraint=eastwest;rounded=0;shadow=0;html=0;" vertex="1" parent="R4sMu0DY9upS_9sUgCj5-1">
          <mxGeometry y="52" width="160" height="26" as="geometry" />
        </mxCell>
        <mxCell id="R4sMu0DY9upS_9sUgCj5-4" value="+ Large" style="text;align=left;verticalAlign=top;spacingLeft=4;spacingRight=4;overflow=hidden;rotatable=0;points=[[0,0.5],[1,0.5]];portConstraint=eastwest;rounded=0;shadow=0;html=0;" vertex="1" parent="R4sMu0DY9upS_9sUgCj5-1">
          <mxGeometry y="78" width="160" height="26" as="geometry" />
        </mxCell>
        <mxCell id="R4sMu0DY9upS_9sUgCj5-5" value="" style="line;html=1;strokeWidth=1;align=left;verticalAlign=middle;spacingTop=-1;spacingLeft=3;spacingRight=3;rotatable=0;labelPosition=right;points=[];portConstraint=eastwest;" vertex="1" parent="R4sMu0DY9upS_9sUgCj5-1">
          <mxGeometry y="104" width="160" height="8" as="geometry" />
        </mxCell>
        <mxCell id="R4sMu0DY9upS_9sUgCj5-6" value="TypeJuice" style="swimlane;fontStyle=0;align=center;verticalAlign=top;childLayout=stackLayout;horizontal=1;startSize=26;horizontalStack=0;resizeParent=1;resizeLast=0;collapsible=1;marginBottom=0;rounded=1;shadow=0;strokeWidth=2;fillColor=#ffe6cc;strokeColor=#d79b00;" vertex="1" parent="1">
          <mxGeometry x="426" y="530" width="160" height="138" as="geometry">
            <mxRectangle x="130" y="380" width="160" height="26" as="alternateBounds" />
          </mxGeometry>
        </mxCell>
        <mxCell id="R4sMu0DY9upS_9sUgCj5-7" value="+ The Boost" style="text;align=left;verticalAlign=top;spacingLeft=4;spacingRight=4;overflow=hidden;rotatable=0;points=[[0,0.5],[1,0.5]];portConstraint=eastwest;" vertex="1" parent="R4sMu0DY9upS_9sUgCj5-6">
          <mxGeometry y="26" width="160" height="26" as="geometry" />
        </mxCell>
        <mxCell id="R4sMu0DY9upS_9sUgCj5-8" value="+ The Fresh" style="text;align=left;verticalAlign=top;spacingLeft=4;spacingRight=4;overflow=hidden;rotatable=0;points=[[0,0.5],[1,0.5]];portConstraint=eastwest;rounded=0;shadow=0;html=0;" vertex="1" parent="R4sMu0DY9upS_9sUgCj5-6">
          <mxGeometry y="52" width="160" height="26" as="geometry" />
        </mxCell>
        <mxCell id="R4sMu0DY9upS_9sUgCj5-9" value="+ The Fusion" style="text;align=left;verticalAlign=top;spacingLeft=4;spacingRight=4;overflow=hidden;rotatable=0;points=[[0,0.5],[1,0.5]];portConstraint=eastwest;rounded=0;shadow=0;html=0;" vertex="1" parent="R4sMu0DY9upS_9sUgCj5-6">
          <mxGeometry y="78" width="160" height="26" as="geometry" />
        </mxCell>
        <mxCell id="R4sMu0DY9upS_9sUgCj5-10" value="+ The Detox" style="text;align=left;verticalAlign=top;spacingLeft=4;spacingRight=4;overflow=hidden;rotatable=0;points=[[0,0.5],[1,0.5]];portConstraint=eastwest;rounded=0;shadow=0;html=0;" vertex="1" parent="R4sMu0DY9upS_9sUgCj5-6">
          <mxGeometry y="104" width="160" height="26" as="geometry" />
        </mxCell>
        <mxCell id="R4sMu0DY9upS_9sUgCj5-11" value="" style="line;html=1;strokeWidth=1;align=left;verticalAlign=middle;spacingTop=-1;spacingLeft=3;spacingRight=3;rotatable=0;labelPosition=right;points=[];portConstraint=eastwest;" vertex="1" parent="R4sMu0DY9upS_9sUgCj5-6">
          <mxGeometry y="130" width="160" height="8" as="geometry" />
        </mxCell>
      </root>
    </mxGraphModel>
  </diagram>
  <diagram id="ne9pp-_fXh_Cp5NewE7e" name="States">
    <mxGraphModel dx="1195" dy="425" grid="1" gridSize="10" guides="1" tooltips="1" connect="1" arrows="1" fold="1" page="1" pageScale="1" pageWidth="827" pageHeight="1169" math="0" shadow="0">
      <root>
        <mxCell id="0" />
        <mxCell id="1" parent="0" />
        <mxCell id="Ge1zutIW3_OGsHlZntNn-1" value="" style="ellipse;html=1;shape=startState;fillColor=#000000;strokeColor=#ff0000;" vertex="1" parent="1">
          <mxGeometry x="220" y="40" width="30" height="30" as="geometry" />
        </mxCell>
        <mxCell id="Ge1zutIW3_OGsHlZntNn-2" value="AskForMenu" style="edgeStyle=orthogonalEdgeStyle;html=1;verticalAlign=bottom;endArrow=classicThin;endSize=8;strokeColor=#000000;rounded=0;endFill=1;" edge="1" parent="1" source="Ge1zutIW3_OGsHlZntNn-1">
          <mxGeometry relative="1" as="geometry">
            <mxPoint x="235" y="130" as="targetPoint" />
          </mxGeometry>
        </mxCell>
        <mxCell id="Ge1zutIW3_OGsHlZntNn-5" value="MenuGived" style="rounded=1;whiteSpace=wrap;html=1;arcSize=40;fontColor=#000000;fillColor=#ffffc0;strokeColor=#ff0000;" vertex="1" parent="1">
          <mxGeometry x="175" y="130" width="120" height="40" as="geometry" />
        </mxCell>
        <mxCell id="Ge1zutIW3_OGsHlZntNn-6" value="" style="edgeStyle=orthogonalEdgeStyle;html=1;verticalAlign=bottom;endArrow=classicThin;endSize=8;strokeColor=#000000;rounded=0;endFill=1;" edge="1" parent="1" source="Ge1zutIW3_OGsHlZntNn-5">
          <mxGeometry relative="1" as="geometry">
            <mxPoint x="235" y="230" as="targetPoint" />
          </mxGeometry>
        </mxCell>
        <mxCell id="Ge1zutIW3_OGsHlZntNn-7" value="SelectMenu(Juice and Size)" style="edgeLabel;html=1;align=center;verticalAlign=middle;resizable=0;points=[];" vertex="1" connectable="0" parent="Ge1zutIW3_OGsHlZntNn-6">
          <mxGeometry x="-0.3" y="2" relative="1" as="geometry">
            <mxPoint as="offset" />
          </mxGeometry>
        </mxCell>
        <mxCell id="Ge1zutIW3_OGsHlZntNn-8" value="" style="edgeStyle=orthogonalEdgeStyle;rounded=0;orthogonalLoop=1;jettySize=auto;html=1;" edge="1" parent="1" source="Ge1zutIW3_OGsHlZntNn-12" target="Ge1zutIW3_OGsHlZntNn-16">
          <mxGeometry relative="1" as="geometry" />
        </mxCell>
        <mxCell id="Ge1zutIW3_OGsHlZntNn-9" value="Order" style="edgeLabel;html=1;align=center;verticalAlign=middle;resizable=0;points=[];" vertex="1" connectable="0" parent="Ge1zutIW3_OGsHlZntNn-8">
          <mxGeometry x="-0.275" y="-1" relative="1" as="geometry">
            <mxPoint as="offset" />
          </mxGeometry>
        </mxCell>
        <mxCell id="Ge1zutIW3_OGsHlZntNn-10" style="edgeStyle=orthogonalEdgeStyle;rounded=0;orthogonalLoop=1;jettySize=auto;html=1;exitX=1;exitY=0.5;exitDx=0;exitDy=0;endArrow=classicThin;endFill=1;strokeColor=#000000;" edge="1" parent="1" source="Ge1zutIW3_OGsHlZntNn-12" target="Ge1zutIW3_OGsHlZntNn-24">
          <mxGeometry relative="1" as="geometry" />
        </mxCell>
        <mxCell id="Ge1zutIW3_OGsHlZntNn-11" value="CancelOrder" style="edgeLabel;html=1;align=center;verticalAlign=middle;resizable=0;points=[];" vertex="1" connectable="0" parent="Ge1zutIW3_OGsHlZntNn-10">
          <mxGeometry x="-0.6734" y="-2" relative="1" as="geometry">
            <mxPoint as="offset" />
          </mxGeometry>
        </mxCell>
        <mxCell id="Ge1zutIW3_OGsHlZntNn-12" value="MenuSelected" style="rounded=1;whiteSpace=wrap;html=1;arcSize=40;fontColor=#000000;fillColor=#ffffc0;strokeColor=#ff0000;" vertex="1" parent="1">
          <mxGeometry x="175" y="230" width="120" height="40" as="geometry" />
        </mxCell>
        <mxCell id="Ge1zutIW3_OGsHlZntNn-13" value="Pay" style="edgeStyle=orthogonalEdgeStyle;rounded=0;orthogonalLoop=1;jettySize=auto;html=1;endArrow=classicThin;endFill=1;strokeColor=#000000;" edge="1" parent="1" source="Ge1zutIW3_OGsHlZntNn-16" target="Ge1zutIW3_OGsHlZntNn-20">
          <mxGeometry relative="1" as="geometry" />
        </mxCell>
        <mxCell id="Ge1zutIW3_OGsHlZntNn-14" style="edgeStyle=orthogonalEdgeStyle;rounded=0;orthogonalLoop=1;jettySize=auto;html=1;exitX=1;exitY=0.5;exitDx=0;exitDy=0;endArrow=classicThin;endFill=1;strokeColor=#000000;entryX=0.5;entryY=0;entryDx=0;entryDy=0;" edge="1" parent="1" source="Ge1zutIW3_OGsHlZntNn-16" target="Ge1zutIW3_OGsHlZntNn-24">
          <mxGeometry relative="1" as="geometry">
            <mxPoint x="500" y="590" as="targetPoint" />
          </mxGeometry>
        </mxCell>
        <mxCell id="Ge1zutIW3_OGsHlZntNn-15" value="CancelOrder" style="edgeLabel;html=1;align=center;verticalAlign=middle;resizable=0;points=[];" vertex="1" connectable="0" parent="Ge1zutIW3_OGsHlZntNn-14">
          <mxGeometry x="-0.5906" y="-1" relative="1" as="geometry">
            <mxPoint as="offset" />
          </mxGeometry>
        </mxCell>
        <mxCell id="Ge1zutIW3_OGsHlZntNn-16" value="OrderPayment" style="rounded=1;whiteSpace=wrap;html=1;arcSize=40;fontColor=#000000;fillColor=#ffffc0;strokeColor=#ff0000;" vertex="1" parent="1">
          <mxGeometry x="175" y="350" width="120" height="40" as="geometry" />
        </mxCell>
        <mxCell id="Ge1zutIW3_OGsHlZntNn-19" value="CancelOrder" style="edgeStyle=orthogonalEdgeStyle;rounded=0;orthogonalLoop=1;jettySize=auto;html=1;exitX=1;exitY=0.5;exitDx=0;exitDy=0;endArrow=classicThin;endFill=1;strokeColor=#000000;" edge="1" parent="1" source="Ge1zutIW3_OGsHlZntNn-20" target="Ge1zutIW3_OGsHlZntNn-24">
          <mxGeometry x="-0.3115" relative="1" as="geometry">
            <mxPoint as="offset" />
            <Array as="points">
              <mxPoint x="495" y="490" />
            </Array>
          </mxGeometry>
        </mxCell>
        <mxCell id="Ge1zutIW3_OGsHlZntNn-20" value="JuicePreparation" style="rounded=1;whiteSpace=wrap;html=1;arcSize=40;fontColor=#000000;fillColor=#ffffc0;strokeColor=#ff0000;" vertex="1" parent="1">
          <mxGeometry x="175" y="470" width="120" height="40" as="geometry" />
        </mxCell>
        <mxCell id="Ge1zutIW3_OGsHlZntNn-24" value="" style="ellipse;html=1;shape=endState;fillColor=#000000;strokeColor=#ff0000;" vertex="1" parent="1">
          <mxGeometry x="480" y="595" width="30" height="30" as="geometry" />
        </mxCell>
        <mxCell id="Ge1zutIW3_OGsHlZntNn-25" style="edgeStyle=orthogonalEdgeStyle;rounded=0;orthogonalLoop=1;jettySize=auto;html=1;exitX=0.5;exitY=1;exitDx=0;exitDy=0;" edge="1" parent="1" source="Ge1zutIW3_OGsHlZntNn-20">
          <mxGeometry relative="1" as="geometry">
            <mxPoint x="295" y="730" as="sourcePoint" />
            <mxPoint x="470" y="610" as="targetPoint" />
            <Array as="points">
              <mxPoint x="235" y="610" />
            </Array>
          </mxGeometry>
        </mxCell>
        <mxCell id="Ge1zutIW3_OGsHlZntNn-26" value="JuiceServed" style="edgeLabel;html=1;align=center;verticalAlign=middle;resizable=0;points=[];" vertex="1" connectable="0" parent="Ge1zutIW3_OGsHlZntNn-25">
          <mxGeometry x="-0.2721" y="1" relative="1" as="geometry">
            <mxPoint as="offset" />
          </mxGeometry>
        </mxCell>
        <mxCell id="4a4bJY6Org7klHIGJ-7R-1" value="A menu is a selection of the juice and the size of the drink" style="rounded=0;whiteSpace=wrap;html=1;strokeColor=default;strokeWidth=2;fillColor=default;" vertex="1" parent="1">
          <mxGeometry x="380" y="10" width="170" height="60" as="geometry" />
        </mxCell>
      </root>
    </mxGraphModel>
  </diagram>
</mxfile>
